<?xml version="1.0" encoding="UTF-8"?>
<!DOCTYPE svg PUBLIC "-//W3C//DTD SVG 1.1//EN" "http://www.w3.org/Graphics/SVG/1.1/DTD/svg11.dtd">
<svg xmlns="http://www.w3.org/2000/svg" version="1.1" width="475px" height="229px" style="shape-rendering:geometricPrecision; text-rendering:geometricPrecision; image-rendering:optimizeQuality; fill-rule:evenodd; clip-rule:evenodd" xmlns:xlink="http://www.w3.org/1999/xlink">
<g><path style="opacity:1" fill="#032e78" d="M 203.5,17.5 C 231.151,15.2521 254.318,24.2521 273,44.5C 279.566,54.4169 281.066,65.0836 277.5,76.5C 278.735,80.1838 280.401,80.3505 282.5,77C 282.188,70.1034 284.021,63.6034 288,57.5C 298.147,49.7387 309.314,47.9054 321.5,52C 334.075,55.0743 341.741,62.9076 344.5,75.5C 343.698,80.0731 342.198,84.4065 340,88.5C 336.005,90.4624 333.672,93.4624 333,97.5C 333.893,98.0814 334.893,98.4148 336,98.5C 349.675,92.2531 361.009,95.2531 370,107.5C 382.374,132.468 399.874,136.802 422.5,120.5C 429.521,112.312 437.854,105.812 447.5,101C 456.767,100.484 465.434,102.484 473.5,107C 459.484,106.167 449.818,112.167 444.5,125C 444.664,129.907 443.497,134.74 441,139.5C 439.846,140.743 438.512,141.743 437,142.5C 433.333,142.167 429.667,141.833 426,141.5C 420.711,145.337 419.211,150.337 421.5,156.5C 419.33,162.169 415.33,166.002 409.5,168C 401.284,171.624 393.284,171.29 385.5,167C 378.901,160.26 378.901,153.593 385.5,147C 395.285,144.308 399.618,147.808 398.5,157.5C 400.348,160.19 402.015,160.023 403.5,157C 402.57,143.545 395.903,139.212 383.5,144C 375.677,150.403 374.511,157.903 380,166.5C 380.667,168.167 380.667,169.833 380,171.5C 368.461,192.458 351.295,199.291 328.5,192C 319.96,187.737 315.293,180.903 314.5,171.5C 330.191,172.327 343.358,166.994 354,155.5C 354.483,154.552 354.649,153.552 354.5,152.5C 353.448,152.351 352.448,152.517 351.5,153C 340.015,165.407 326.015,169.74 309.5,166C 302.967,163.453 299.467,158.62 299,151.5C 296.605,150.202 295.438,151.035 295.5,154C 297.276,162.447 302.276,168.113 310.5,171C 295.611,199.419 272.944,207.752 242.5,196C 219.714,181.673 210.88,161.173 216,134.5C 224.062,116.871 237.896,107.871 257.5,107.5C 272.031,106.932 283.198,112.599 291,124.5C 294.295,139.928 288.795,151.095 274.5,158C 269.5,158.667 264.5,158.667 259.5,158C 252.765,154.475 250.265,148.975 252,141.5C 255.303,134.779 260.47,132.612 267.5,135C 269.211,136.133 269.711,137.633 269,139.5C 266.732,140.76 264.566,142.094 262.5,143.5C 266.167,146.12 269.333,145.453 272,141.5C 273.767,135.027 271.434,131.027 265,129.5C 253.052,129.828 247.386,136.495 248,149.5C 252.975,161.234 261.808,165.4 274.5,162C 289.922,155.658 297.088,144.158 296,127.5C 290.921,113.759 281.088,105.926 266.5,104C 257.73,103.303 249.064,103.636 240.5,105C 247.144,92.3047 246.644,79.8047 239,67.5C 226.675,54.002 213.342,53.002 199,64.5C 196.914,68.1255 195.414,71.6255 194.5,75C 195.564,78.0638 197.397,80.5638 200,82.5C 202,80.8333 202,79.1667 200,77.5C 199.148,71.0397 201.648,66.2064 207.5,63C 221.94,56.929 232.44,61.0957 239,75.5C 244.757,97.8185 236.59,112.318 214.5,119C 193.583,124.489 175.083,119.655 159,104.5C 146.591,87.7585 145.257,70.0918 155,51.5C 162.987,38.5123 173.82,28.679 187.5,22C 192.918,20.3872 198.251,18.8872 203.5,17.5 Z"/></g>
<g><path style="opacity:1" fill="#032e77" d="M -0.5,151.5 C -0.5,151.167 -0.5,150.833 -0.5,150.5C 2.44531,149.532 5.44531,149.366 8.5,150C 14.9914,153.137 21.8248,155.304 29,156.5C 38.1885,155.906 45.5219,151.906 51,144.5C 55.1175,136.411 60.9508,129.911 68.5,125C 78.0883,121.281 87.4216,121.781 96.5,126.5C 99.3861,153.444 114.053,163.944 140.5,158C 151.854,152.19 155.354,143.69 151,132.5C 144.894,124.833 137.394,122.667 128.5,126C 125.91,128.004 123.91,130.504 122.5,133.5C 122.833,134.5 123.5,135.167 124.5,135.5C 128.167,129.353 133.5,127.186 140.5,129C 148.99,133.863 150.823,140.697 146,149.5C 137.109,156.759 127.275,158.259 116.5,154C 104.367,147.899 99.5333,138.065 102,124.5C 108.328,102.082 123.162,90.9149 146.5,91C 156.587,113.635 174.087,124.801 199,124.5C 204.653,124.724 210.153,124.057 215.5,122.5C 216.167,122.833 216.833,123.167 217.5,123.5C 212.359,130.823 210.025,138.99 210.5,148C 210.849,160.906 214.516,172.739 221.5,183.5C 213.626,195.291 202.959,198.791 189.5,194C 185.667,191.5 182.5,188.333 180,184.5C 165.263,204.098 147.096,207.932 125.5,196C 118.667,189.833 111.833,183.667 105,177.5C 104.333,176.833 104.333,176.167 105,175.5C 119.702,185.644 135.535,187.81 152.5,182C 155.92,180.254 159.087,178.087 162,175.5C 162.601,174.035 162.101,173.035 160.5,172.5C 147.24,182.177 132.907,184.01 117.5,178C 109.206,173.734 100.873,169.401 92.5,165C 83.4738,161.711 74.4738,161.711 65.5,165C 57.0958,170.533 48.4291,175.533 39.5,180C 34.1667,180.667 28.8333,180.667 23.5,180C 20.7336,178.533 18.2336,176.7 16,174.5C 12.6667,168.5 9.33333,162.5 6,156.5C 4.24186,154.235 2.07519,152.568 -0.5,151.5 Z"/></g>
<g><path style="opacity:0.125" fill="#0d1d37" d="M 474.5,163.5 C 474.5,164.167 474.5,164.833 474.5,165.5C 473.167,164.833 473.167,164.167 474.5,163.5 Z"/></g>
</svg>
