<?xml version="1.0" encoding="UTF-8"?>
<!DOCTYPE svg PUBLIC "-//W3C//DTD SVG 1.1//EN" "http://www.w3.org/Graphics/SVG/1.1/DTD/svg11.dtd">
<svg xmlns="http://www.w3.org/2000/svg" version="1.1" width="475px" height="229px" style="shape-rendering:geometricPrecision; text-rendering:geometricPrecision; image-rendering:optimizeQuality; fill-rule:evenodd; clip-rule:evenodd" xmlns:xlink="http://www.w3.org/1999/xlink">
<g><path style="opacity:1" fill="#032e78" d="M 203.5,-0.5 C 210.167,-0.5 216.833,-0.5 223.5,-0.5C 243.156,2.58058 259.656,11.5806 273,26.5C 279.566,36.4169 281.066,47.0836 277.5,58.5C 278.735,62.1838 280.401,62.3505 282.5,59C 282.188,52.1034 284.021,45.6034 288,39.5C 298.147,31.7387 309.314,29.9054 321.5,34C 334.075,37.0743 341.741,44.9076 344.5,57.5C 343.698,62.0731 342.198,66.4065 340,70.5C 336.005,72.4624 333.672,75.4624 333,79.5C 333.893,80.0814 334.893,80.4148 336,80.5C 347.339,74.7064 357.506,76.3731 366.5,85.5C 370.492,90.1502 373.992,95.1502 377,100.5C 386.246,112.353 397.746,115.186 411.5,109C 421.15,104.005 429.483,97.338 436.5,89C 440.007,86.746 443.673,84.746 447.5,83C 456.767,82.4837 465.434,84.4837 473.5,89C 459.484,88.167 449.818,94.167 444.5,107C 444.664,111.907 443.497,116.74 441,121.5C 439.846,122.743 438.512,123.743 437,124.5C 433.333,124.167 429.667,123.833 426,123.5C 420.711,127.337 419.211,132.337 421.5,138.5C 419.33,144.169 415.33,148.002 409.5,150C 401.284,153.624 393.284,153.29 385.5,149C 378.901,142.26 378.901,135.593 385.5,129C 395.285,126.308 399.618,129.808 398.5,139.5C 400.348,142.19 402.015,142.023 403.5,139C 402.57,125.545 395.903,121.212 383.5,126C 375.677,132.403 374.511,139.903 380,148.5C 380.667,150.167 380.667,151.833 380,153.5C 368.461,174.458 351.295,181.291 328.5,174C 319.96,169.737 315.293,162.903 314.5,153.5C 330.191,154.327 343.358,148.994 354,137.5C 354.483,136.552 354.649,135.552 354.5,134.5C 353.448,134.351 352.448,134.517 351.5,135C 340.015,147.407 326.015,151.74 309.5,148C 302.967,145.453 299.467,140.62 299,133.5C 296.605,132.202 295.438,133.035 295.5,136C 297.276,144.447 302.276,150.113 310.5,153C 295.611,181.419 272.944,189.752 242.5,178C 219.714,163.673 210.88,143.173 216,116.5C 224.062,98.8714 237.896,89.8714 257.5,89.5C 272.031,88.9323 283.198,94.599 291,106.5C 294.295,121.928 288.795,133.095 274.5,140C 269.5,140.667 264.5,140.667 259.5,140C 252.765,136.475 250.265,130.975 252,123.5C 255.303,116.779 260.47,114.612 267.5,117C 269.211,118.133 269.711,119.633 269,121.5C 266.732,122.76 264.566,124.094 262.5,125.5C 266.167,128.12 269.333,127.453 272,123.5C 273.767,117.027 271.434,113.027 265,111.5C 253.052,111.828 247.386,118.495 248,131.5C 252.975,143.234 261.808,147.4 274.5,144C 289.922,137.658 297.088,126.158 296,109.5C 290.921,95.7594 281.088,87.926 266.5,86C 257.73,85.3031 249.064,85.6364 240.5,87C 247.144,74.3047 246.644,61.8047 239,49.5C 226.675,36.002 213.342,35.002 199,46.5C 196.914,50.1255 195.414,53.6255 194.5,57C 195.564,60.0638 197.397,62.5638 200,64.5C 202,62.8333 202,61.1667 200,59.5C 199.148,53.0397 201.648,48.2064 207.5,45C 221.94,38.929 232.44,43.0957 239,57.5C 244.757,79.8185 236.59,94.3185 214.5,101C 193.583,106.489 175.083,101.655 159,86.5C 146.591,69.7585 145.257,52.0918 155,33.5C 162.987,20.5123 173.82,10.679 187.5,4C 192.918,2.38715 198.251,0.887154 203.5,-0.5 Z"/></g>
<g><path style="opacity:1" fill="#032e77" d="M -0.5,133.5 C -0.5,133.167 -0.5,132.833 -0.5,132.5C 2.44531,131.532 5.44531,131.366 8.5,132C 14.9914,135.137 21.8248,137.304 29,138.5C 38.1885,137.906 45.5219,133.906 51,126.5C 55.1175,118.411 60.9508,111.911 68.5,107C 78.0883,103.281 87.4216,103.781 96.5,108.5C 99.3861,135.444 114.053,145.944 140.5,140C 151.854,134.19 155.354,125.69 151,114.5C 144.894,106.833 137.394,104.667 128.5,108C 125.91,110.004 123.91,112.504 122.5,115.5C 122.833,116.5 123.5,117.167 124.5,117.5C 128.167,111.353 133.5,109.186 140.5,111C 148.99,115.863 150.823,122.697 146,131.5C 137.109,138.759 127.275,140.259 116.5,136C 104.367,129.899 99.5333,120.065 102,106.5C 108.328,84.0816 123.162,72.9149 146.5,73C 156.587,95.6346 174.087,106.801 199,106.5C 204.653,106.724 210.153,106.057 215.5,104.5C 216.167,104.833 216.833,105.167 217.5,105.5C 212.359,112.823 210.025,120.99 210.5,130C 210.849,142.906 214.516,154.739 221.5,165.5C 213.626,177.291 202.959,180.791 189.5,176C 185.667,173.5 182.5,170.333 180,166.5C 165.263,186.098 147.096,189.932 125.5,178C 118.667,171.833 111.833,165.667 105,159.5C 104.333,158.833 104.333,158.167 105,157.5C 119.702,167.644 135.535,169.81 152.5,164C 155.92,162.254 159.087,160.087 162,157.5C 162.601,156.035 162.101,155.035 160.5,154.5C 147.24,164.177 132.907,166.01 117.5,160C 109.206,155.734 100.873,151.401 92.5,147C 83.4738,143.711 74.4738,143.711 65.5,147C 57.0958,152.533 48.4291,157.533 39.5,162C 34.1667,162.667 28.8333,162.667 23.5,162C 20.7336,160.533 18.2336,158.7 16,156.5C 12.6667,150.5 9.33333,144.5 6,138.5C 4.24186,136.235 2.07519,134.568 -0.5,133.5 Z"/></g>
<g><path style="opacity:0.125" fill="#0d1d37" d="M 474.5,145.5 C 474.5,146.167 474.5,146.833 474.5,147.5C 473.167,146.833 473.167,146.167 474.5,145.5 Z"/></g>
</svg>
